<mxfile host="app.diagrams.net" agent="Mozilla/5.0 (Windows NT 10.0; Win64; x64) AppleWebKit/537.36 (KHTML, like Gecko) Chrome/138.0.0.0 Safari/537.36" version="28.0.6">
  <diagram name="Page-1" id="vNXdkOcBj9Wq41IBkxlO">
    <mxGraphModel dx="2605" dy="2594" grid="1" gridSize="10" guides="1" tooltips="1" connect="1" arrows="1" fold="1" page="1" pageScale="1" pageWidth="827" pageHeight="1169" math="0" shadow="0">
      <root>
        <mxCell id="0" />
        <mxCell id="1" parent="0" />
        <mxCell id="6fYzGvUYfayJuw-_JPxw-3" value="&lt;span style=&quot;font-size: 24px;&quot;&gt;vcc/5v&lt;/span&gt;" style="pointerEvents=1;verticalLabelPosition=bottom;shadow=0;dashed=0;align=center;html=1;verticalAlign=top;shape=mxgraph.electrical.signal_sources.source;aspect=fixed;points=[[0.5,0,0],[1,0.5,0],[0.5,1,0],[0,0.5,0]];elSignalType=dc3;" parent="1" vertex="1">
          <mxGeometry x="260" y="-150" width="290" height="290" as="geometry" />
        </mxCell>
        <mxCell id="6fYzGvUYfayJuw-_JPxw-4" value="GND" style="pointerEvents=1;verticalLabelPosition=bottom;shadow=0;dashed=0;align=center;html=1;verticalAlign=top;shape=mxgraph.electrical.signal_sources.signal_ground;fontSize=21;" parent="1" vertex="1">
          <mxGeometry x="304" y="860" width="220" height="230" as="geometry" />
        </mxCell>
        <mxCell id="6fYzGvUYfayJuw-_JPxw-9" value="&lt;span style=&quot;color: rgb(0, 29, 53); font-family: Arial, sans-serif; text-align: start; text-wrap-mode: wrap; background-color: rgb(255, 255, 255);&quot;&gt;&lt;font style=&quot;font-size: 25px;&quot;&gt;10kΩ&lt;/font&gt;&lt;/span&gt;" style="pointerEvents=1;verticalLabelPosition=bottom;shadow=0;dashed=0;align=center;html=1;verticalAlign=top;shape=mxgraph.electrical.resistors.resistor_2;rotation=90;fontSize=33;" parent="1" vertex="1">
          <mxGeometry x="530" y="350" width="211" height="60" as="geometry" />
        </mxCell>
        <mxCell id="6fYzGvUYfayJuw-_JPxw-22" style="edgeStyle=orthogonalEdgeStyle;rounded=0;orthogonalLoop=1;jettySize=auto;html=1;exitX=1;exitY=0.5;exitDx=0;exitDy=0;exitPerimeter=0;" parent="1" source="6fYzGvUYfayJuw-_JPxw-12" edge="1">
          <mxGeometry relative="1" as="geometry">
            <mxPoint x="635.1764705882354" y="730" as="targetPoint" />
          </mxGeometry>
        </mxCell>
        <mxCell id="6fYzGvUYfayJuw-_JPxw-12" value="&lt;span style=&quot;color: rgb(0, 29, 53); font-family: Arial, sans-serif; text-align: start; text-wrap-mode: wrap; background-color: rgb(255, 255, 255);&quot;&gt;&lt;font style=&quot;font-size: 25px;&quot;&gt;10kΩ&lt;/font&gt;&lt;/span&gt;" style="pointerEvents=1;verticalLabelPosition=bottom;shadow=0;dashed=0;align=center;html=1;verticalAlign=top;shape=mxgraph.electrical.resistors.resistor_2;rotation=90;" parent="1" vertex="1">
          <mxGeometry x="530" y="585" width="211" height="60" as="geometry" />
        </mxCell>
        <mxCell id="6fYzGvUYfayJuw-_JPxw-20" style="edgeStyle=orthogonalEdgeStyle;rounded=0;orthogonalLoop=1;jettySize=auto;html=1;exitX=1;exitY=0.5;exitDx=0;exitDy=0;exitPerimeter=0;entryX=0;entryY=0.5;entryDx=0;entryDy=0;entryPerimeter=0;" parent="1" source="6fYzGvUYfayJuw-_JPxw-3" target="6fYzGvUYfayJuw-_JPxw-9" edge="1">
          <mxGeometry relative="1" as="geometry" />
        </mxCell>
        <mxCell id="6fYzGvUYfayJuw-_JPxw-21" style="edgeStyle=orthogonalEdgeStyle;rounded=0;orthogonalLoop=1;jettySize=auto;html=1;exitX=1;exitY=0.5;exitDx=0;exitDy=0;exitPerimeter=0;entryX=0;entryY=0.5;entryDx=0;entryDy=0;entryPerimeter=0;" parent="1" source="6fYzGvUYfayJuw-_JPxw-9" target="6fYzGvUYfayJuw-_JPxw-12" edge="1">
          <mxGeometry relative="1" as="geometry" />
        </mxCell>
        <mxCell id="6fYzGvUYfayJuw-_JPxw-23" style="edgeStyle=orthogonalEdgeStyle;rounded=0;orthogonalLoop=1;jettySize=auto;html=1;exitX=1;exitY=0.5;exitDx=0;exitDy=0;exitPerimeter=0;entryX=0.5;entryY=0;entryDx=0;entryDy=0;entryPerimeter=0;" parent="1" source="6fYzGvUYfayJuw-_JPxw-12" target="6fYzGvUYfayJuw-_JPxw-4" edge="1">
          <mxGeometry relative="1" as="geometry">
            <Array as="points">
              <mxPoint x="636" y="850" />
              <mxPoint x="414" y="850" />
            </Array>
          </mxGeometry>
        </mxCell>
        <mxCell id="6fYzGvUYfayJuw-_JPxw-28" style="edgeStyle=orthogonalEdgeStyle;rounded=0;orthogonalLoop=1;jettySize=auto;html=1;exitX=1;exitY=0.5;exitDx=0;exitDy=0;exitPerimeter=0;entryX=0.5;entryY=0;entryDx=0;entryDy=0;entryPerimeter=0;" parent="1" source="6fYzGvUYfayJuw-_JPxw-24" target="6fYzGvUYfayJuw-_JPxw-4" edge="1">
          <mxGeometry relative="1" as="geometry">
            <mxPoint x="420" y="851.4544122869319" as="targetPoint" />
            <Array as="points">
              <mxPoint x="890" y="850" />
              <mxPoint x="414" y="850" />
            </Array>
          </mxGeometry>
        </mxCell>
        <mxCell id="6fYzGvUYfayJuw-_JPxw-24" value="&lt;font style=&quot;font-size: 24px;&quot;&gt;10&lt;span style=&quot;color: rgb(0, 29, 53); font-family: Arial, sans-serif; text-align: start; text-wrap-mode: wrap; background-color: rgb(255, 255, 255);&quot;&gt;µF&lt;/span&gt;&lt;/font&gt;" style="pointerEvents=1;verticalLabelPosition=bottom;shadow=0;dashed=0;align=center;html=1;verticalAlign=top;shape=mxgraph.electrical.capacitors.capacitor_3;rotation=90;" parent="1" vertex="1">
          <mxGeometry x="780" y="360" width="220" height="170" as="geometry" />
        </mxCell>
        <mxCell id="6fYzGvUYfayJuw-_JPxw-26" style="edgeStyle=orthogonalEdgeStyle;rounded=0;orthogonalLoop=1;jettySize=auto;html=1;exitX=0;exitY=0.5;exitDx=0;exitDy=0;exitPerimeter=0;entryX=0;entryY=0.5;entryDx=0;entryDy=0;entryPerimeter=0;" parent="1" source="6fYzGvUYfayJuw-_JPxw-24" target="6fYzGvUYfayJuw-_JPxw-12" edge="1">
          <mxGeometry relative="1" as="geometry">
            <Array as="points">
              <mxPoint x="890" y="330" />
              <mxPoint x="770" y="330" />
              <mxPoint x="770" y="500" />
              <mxPoint x="636" y="500" />
            </Array>
          </mxGeometry>
        </mxCell>
        <mxCell id="6fYzGvUYfayJuw-_JPxw-31" style="edgeStyle=orthogonalEdgeStyle;rounded=0;orthogonalLoop=1;jettySize=auto;html=1;exitX=1;exitY=0.75;exitDx=0;exitDy=0;entryX=0.5;entryY=0;entryDx=0;entryDy=0;entryPerimeter=0;" parent="1" source="6fYzGvUYfayJuw-_JPxw-29" target="6fYzGvUYfayJuw-_JPxw-4" edge="1">
          <mxGeometry relative="1" as="geometry">
            <mxPoint x="1330" y="504.3333333333335" as="targetPoint" />
            <Array as="points">
              <mxPoint x="1480" y="620" />
              <mxPoint x="1480" y="850" />
              <mxPoint x="414" y="850" />
            </Array>
          </mxGeometry>
        </mxCell>
        <mxCell id="6fYzGvUYfayJuw-_JPxw-29" value="STC-013" style="rounded=0;whiteSpace=wrap;html=1;fontSize=25;" parent="1" vertex="1">
          <mxGeometry x="1230" y="545" width="220" height="100" as="geometry" />
        </mxCell>
        <mxCell id="6fYzGvUYfayJuw-_JPxw-33" style="edgeStyle=orthogonalEdgeStyle;rounded=0;orthogonalLoop=1;jettySize=auto;html=1;exitX=1;exitY=0.5;exitDx=0;exitDy=0;exitPerimeter=0;entryX=1;entryY=0.25;entryDx=0;entryDy=0;" parent="1" source="6fYzGvUYfayJuw-_JPxw-32" target="6fYzGvUYfayJuw-_JPxw-29" edge="1">
          <mxGeometry relative="1" as="geometry" />
        </mxCell>
        <mxCell id="6fYzGvUYfayJuw-_JPxw-32" value="&lt;font&gt;10&lt;span style=&quot;color: rgb(0, 29, 53); font-family: Arial, sans-serif; text-align: start; text-wrap-mode: wrap; background-color: rgb(255, 255, 255);&quot;&gt;µF&lt;/span&gt;&lt;/font&gt;" style="pointerEvents=1;verticalLabelPosition=bottom;shadow=0;dashed=0;align=center;html=1;verticalAlign=top;shape=mxgraph.electrical.capacitors.capacitor_1;fontSize=25;" parent="1" vertex="1">
          <mxGeometry x="890" y="530" width="230" height="90" as="geometry" />
        </mxCell>
        <mxCell id="6fYzGvUYfayJuw-_JPxw-34" style="edgeStyle=orthogonalEdgeStyle;rounded=0;orthogonalLoop=1;jettySize=auto;html=1;exitX=0;exitY=0.5;exitDx=0;exitDy=0;exitPerimeter=0;entryX=0;entryY=0.5;entryDx=0;entryDy=0;entryPerimeter=0;" parent="1" source="6fYzGvUYfayJuw-_JPxw-32" target="6fYzGvUYfayJuw-_JPxw-12" edge="1">
          <mxGeometry relative="1" as="geometry">
            <Array as="points">
              <mxPoint x="690" y="575" />
              <mxPoint x="690" y="510" />
              <mxPoint x="636" y="510" />
            </Array>
          </mxGeometry>
        </mxCell>
        <mxCell id="6fYzGvUYfayJuw-_JPxw-35" value="&lt;span style=&quot;font-size: 25px;&quot;&gt;MCP3008 ADC&lt;/span&gt;" style="rounded=0;whiteSpace=wrap;html=1;" parent="1" vertex="1">
          <mxGeometry x="1250" y="180" width="140" height="140" as="geometry" />
        </mxCell>
        <mxCell id="6fYzGvUYfayJuw-_JPxw-39" value="&lt;font style=&quot;font-size: 18px;&quot;&gt;VDD&lt;/font&gt;" style="text;html=1;align=right;verticalAlign=middle;whiteSpace=wrap;rounded=0;rotation=0;" parent="1" vertex="1">
          <mxGeometry x="1200" y="180" width="50" height="30" as="geometry" />
        </mxCell>
        <mxCell id="6fYzGvUYfayJuw-_JPxw-45" style="edgeStyle=orthogonalEdgeStyle;rounded=0;orthogonalLoop=1;jettySize=auto;html=1;exitX=0;exitY=0.5;exitDx=0;exitDy=0;entryX=1;entryY=0.5;entryDx=0;entryDy=0;entryPerimeter=0;" parent="1" source="6fYzGvUYfayJuw-_JPxw-41" target="6fYzGvUYfayJuw-_JPxw-3" edge="1">
          <mxGeometry relative="1" as="geometry">
            <mxPoint x="1120" y="340" as="targetPoint" />
            <Array as="points">
              <mxPoint x="950" y="235" />
              <mxPoint x="950" y="-5" />
            </Array>
          </mxGeometry>
        </mxCell>
        <mxCell id="6fYzGvUYfayJuw-_JPxw-41" value="&lt;font style=&quot;font-size: 17px;&quot;&gt;VREF&lt;/font&gt;" style="text;html=1;align=center;verticalAlign=middle;whiteSpace=wrap;rounded=0;rotation=0;" parent="1" vertex="1">
          <mxGeometry x="1195" y="220" width="60" height="30" as="geometry" />
        </mxCell>
        <mxCell id="6fYzGvUYfayJuw-_JPxw-44" style="edgeStyle=orthogonalEdgeStyle;rounded=0;orthogonalLoop=1;jettySize=auto;html=1;exitX=0;exitY=0.5;exitDx=0;exitDy=0;entryX=1;entryY=0.5;entryDx=0;entryDy=0;entryPerimeter=0;" parent="1" source="6fYzGvUYfayJuw-_JPxw-39" target="6fYzGvUYfayJuw-_JPxw-3" edge="1">
          <mxGeometry relative="1" as="geometry" />
        </mxCell>
        <mxCell id="6fYzGvUYfayJuw-_JPxw-46" value="&lt;span style=&quot;font-size: 17px;&quot;&gt;VSS&lt;/span&gt;" style="text;html=1;align=center;verticalAlign=middle;whiteSpace=wrap;rounded=0;" parent="1" vertex="1">
          <mxGeometry x="1200" y="290" width="60" height="30" as="geometry" />
        </mxCell>
        <mxCell id="6fYzGvUYfayJuw-_JPxw-49" style="edgeStyle=orthogonalEdgeStyle;rounded=0;orthogonalLoop=1;jettySize=auto;html=1;exitX=0;exitY=0.5;exitDx=0;exitDy=0;entryX=0.5;entryY=0;entryDx=0;entryDy=0;entryPerimeter=0;" parent="1" source="6fYzGvUYfayJuw-_JPxw-46" target="6fYzGvUYfayJuw-_JPxw-4" edge="1">
          <mxGeometry relative="1" as="geometry">
            <Array as="points">
              <mxPoint x="1170" y="305" />
              <mxPoint x="1170" y="850" />
              <mxPoint x="414" y="850" />
            </Array>
          </mxGeometry>
        </mxCell>
        <mxCell id="6fYzGvUYfayJuw-_JPxw-51" value="&lt;font style=&quot;font-size: 16px;&quot;&gt;CHO&lt;/font&gt;" style="text;html=1;align=right;verticalAlign=middle;whiteSpace=wrap;rounded=0;" parent="1" vertex="1">
          <mxGeometry x="1200" y="250" width="50" height="30" as="geometry" />
        </mxCell>
        <mxCell id="6fYzGvUYfayJuw-_JPxw-53" value="&lt;font style=&quot;font-size: 17px;&quot;&gt;CS&lt;/font&gt;" style="text;html=1;align=center;verticalAlign=middle;whiteSpace=wrap;rounded=0;" parent="1" vertex="1">
          <mxGeometry x="1390" y="181" width="60" height="30" as="geometry" />
        </mxCell>
        <mxCell id="6fYzGvUYfayJuw-_JPxw-54" value="&lt;font style=&quot;font-size: 17px;&quot;&gt;CLK&lt;/font&gt;" style="text;html=1;align=center;verticalAlign=middle;whiteSpace=wrap;rounded=0;" parent="1" vertex="1">
          <mxGeometry x="1390" y="220" width="60" height="30" as="geometry" />
        </mxCell>
        <mxCell id="6fYzGvUYfayJuw-_JPxw-55" value="&lt;font style=&quot;font-size: 17px;&quot;&gt;MOSI&lt;/font&gt;" style="text;html=1;align=center;verticalAlign=middle;whiteSpace=wrap;rounded=0;" parent="1" vertex="1">
          <mxGeometry x="1390" y="250" width="60" height="30" as="geometry" />
        </mxCell>
        <mxCell id="6fYzGvUYfayJuw-_JPxw-56" style="edgeStyle=orthogonalEdgeStyle;rounded=0;orthogonalLoop=1;jettySize=auto;html=1;exitX=0;exitY=0.5;exitDx=0;exitDy=0;entryX=0;entryY=0.5;entryDx=0;entryDy=0;entryPerimeter=0;" parent="1" source="6fYzGvUYfayJuw-_JPxw-51" target="6fYzGvUYfayJuw-_JPxw-12" edge="1">
          <mxGeometry relative="1" as="geometry">
            <Array as="points">
              <mxPoint x="690" y="265" />
              <mxPoint x="690" y="490" />
              <mxPoint x="636" y="490" />
            </Array>
          </mxGeometry>
        </mxCell>
        <mxCell id="6fYzGvUYfayJuw-_JPxw-57" value="&lt;font style=&quot;font-size: 17px;&quot;&gt;MISO&lt;/font&gt;" style="text;html=1;align=center;verticalAlign=middle;whiteSpace=wrap;rounded=0;" parent="1" vertex="1">
          <mxGeometry x="1390" y="290" width="60" height="30" as="geometry" />
        </mxCell>
        <mxCell id="6fYzGvUYfayJuw-_JPxw-59" value="&lt;font style=&quot;font-size: 25px;&quot;&gt;Raspberry Pi Zero W&lt;/font&gt;" style="rounded=0;whiteSpace=wrap;html=1;" parent="1" vertex="1">
          <mxGeometry x="1654" y="330" width="310" height="145" as="geometry" />
        </mxCell>
        <mxCell id="6fYzGvUYfayJuw-_JPxw-60" value="&lt;font style=&quot;font-size: 17px;&quot;&gt;GND&lt;/font&gt;" style="text;html=1;align=center;verticalAlign=middle;whiteSpace=wrap;rounded=0;" parent="1" vertex="1">
          <mxGeometry x="1600" y="460" width="60" height="15" as="geometry" />
        </mxCell>
        <mxCell id="6fYzGvUYfayJuw-_JPxw-62" value="&lt;span style=&quot;font-size: 17px;&quot;&gt;5V/VCC&lt;/span&gt;" style="text;html=1;align=center;verticalAlign=middle;whiteSpace=wrap;rounded=0;" parent="1" vertex="1">
          <mxGeometry x="1574" y="330" width="80" height="20" as="geometry" />
        </mxCell>
        <mxCell id="6fYzGvUYfayJuw-_JPxw-64" style="edgeStyle=orthogonalEdgeStyle;rounded=0;orthogonalLoop=1;jettySize=auto;html=1;exitX=0;exitY=0.5;exitDx=0;exitDy=0;entryX=1;entryY=0.5;entryDx=0;entryDy=0;entryPerimeter=0;" parent="1" source="6fYzGvUYfayJuw-_JPxw-62" target="6fYzGvUYfayJuw-_JPxw-3" edge="1">
          <mxGeometry relative="1" as="geometry">
            <Array as="points">
              <mxPoint x="1550" y="340" />
              <mxPoint x="1550" y="110" />
              <mxPoint x="1062" y="110" />
              <mxPoint x="1062" y="-5" />
            </Array>
          </mxGeometry>
        </mxCell>
        <mxCell id="6fYzGvUYfayJuw-_JPxw-65" style="edgeStyle=orthogonalEdgeStyle;rounded=0;orthogonalLoop=1;jettySize=auto;html=1;exitX=0;exitY=0.5;exitDx=0;exitDy=0;entryX=0.5;entryY=0;entryDx=0;entryDy=0;entryPerimeter=0;" parent="1" source="6fYzGvUYfayJuw-_JPxw-60" target="6fYzGvUYfayJuw-_JPxw-4" edge="1">
          <mxGeometry relative="1" as="geometry">
            <Array as="points">
              <mxPoint x="1560" y="850" />
              <mxPoint x="414" y="850" />
            </Array>
          </mxGeometry>
        </mxCell>
        <mxCell id="6fYzGvUYfayJuw-_JPxw-70" style="edgeStyle=orthogonalEdgeStyle;rounded=0;orthogonalLoop=1;jettySize=auto;html=1;exitX=0;exitY=0.5;exitDx=0;exitDy=0;entryX=1;entryY=0.5;entryDx=0;entryDy=0;" parent="1" source="6fYzGvUYfayJuw-_JPxw-66" target="6fYzGvUYfayJuw-_JPxw-53" edge="1">
          <mxGeometry relative="1" as="geometry" />
        </mxCell>
        <mxCell id="6fYzGvUYfayJuw-_JPxw-66" value="&lt;font style=&quot;font-size: 17px;&quot;&gt;GPIO8&lt;/font&gt;" style="text;html=1;align=right;verticalAlign=middle;whiteSpace=wrap;rounded=0;" parent="1" vertex="1">
          <mxGeometry x="1590" y="360" width="64" height="20" as="geometry" />
        </mxCell>
        <mxCell id="6fYzGvUYfayJuw-_JPxw-71" style="edgeStyle=orthogonalEdgeStyle;rounded=0;orthogonalLoop=1;jettySize=auto;html=1;exitX=0;exitY=0.5;exitDx=0;exitDy=0;entryX=1;entryY=0.5;entryDx=0;entryDy=0;" parent="1" source="6fYzGvUYfayJuw-_JPxw-67" target="6fYzGvUYfayJuw-_JPxw-54" edge="1">
          <mxGeometry relative="1" as="geometry">
            <Array as="points">
              <mxPoint x="1510" y="398" />
              <mxPoint x="1510" y="235" />
            </Array>
          </mxGeometry>
        </mxCell>
        <mxCell id="6fYzGvUYfayJuw-_JPxw-67" value="&lt;font style=&quot;font-size: 17px;&quot;&gt;GPIO11&lt;/font&gt;" style="text;html=1;align=right;verticalAlign=middle;whiteSpace=wrap;rounded=0;" parent="1" vertex="1">
          <mxGeometry x="1594" y="380" width="60" height="25" as="geometry" />
        </mxCell>
        <mxCell id="6fYzGvUYfayJuw-_JPxw-72" style="edgeStyle=orthogonalEdgeStyle;rounded=0;orthogonalLoop=1;jettySize=auto;html=1;exitX=0;exitY=0.5;exitDx=0;exitDy=0;entryX=1;entryY=0.5;entryDx=0;entryDy=0;" parent="1" source="6fYzGvUYfayJuw-_JPxw-68" target="6fYzGvUYfayJuw-_JPxw-55" edge="1">
          <mxGeometry relative="1" as="geometry">
            <Array as="points">
              <mxPoint x="1500" y="425" />
              <mxPoint x="1500" y="265" />
            </Array>
          </mxGeometry>
        </mxCell>
        <mxCell id="6fYzGvUYfayJuw-_JPxw-68" value="&lt;font style=&quot;font-size: 17px;&quot;&gt;GPIO10&lt;/font&gt;" style="text;html=1;align=center;verticalAlign=middle;whiteSpace=wrap;rounded=0;" parent="1" vertex="1">
          <mxGeometry x="1590" y="415" width="64" height="20" as="geometry" />
        </mxCell>
        <mxCell id="6fYzGvUYfayJuw-_JPxw-73" style="edgeStyle=orthogonalEdgeStyle;rounded=0;orthogonalLoop=1;jettySize=auto;html=1;exitX=0;exitY=0.5;exitDx=0;exitDy=0;entryX=1;entryY=0.5;entryDx=0;entryDy=0;" parent="1" source="6fYzGvUYfayJuw-_JPxw-69" target="6fYzGvUYfayJuw-_JPxw-57" edge="1">
          <mxGeometry relative="1" as="geometry">
            <Array as="points">
              <mxPoint x="1490" y="450" />
              <mxPoint x="1490" y="305" />
            </Array>
          </mxGeometry>
        </mxCell>
        <mxCell id="6fYzGvUYfayJuw-_JPxw-69" value="&lt;font style=&quot;font-size: 17px;&quot;&gt;GPIO9&lt;/font&gt;" style="text;html=1;align=center;verticalAlign=middle;whiteSpace=wrap;rounded=0;" parent="1" vertex="1">
          <mxGeometry x="1594" y="435" width="60" height="20" as="geometry" />
        </mxCell>
      </root>
    </mxGraphModel>
  </diagram>
</mxfile>
